HIERARCHY
ROOT Hips
{
	OFFSET 0.00000 0.00000 0.00000
	CHANNELS 6 Xposition Yposition Zposition Zrotation Yrotation Xrotation 
	JOINT LHipJoint
	{
		OFFSET 0 0 0
		CHANNELS 3 Zrotation Yrotation Xrotation
		JOINT LeftHip
		{
			OFFSET 1.64549 -1.70879 0.84566
			CHANNELS 3 Zrotation Yrotation Xrotation
			JOINT LeftKnee
			{
				OFFSET 2.24963 -6.18082 0.00000
				CHANNELS 3 Zrotation Yrotation Xrotation
				JOINT LeftAnkle
				{
					OFFSET 2.71775 -7.46697 0.00000
					CHANNELS 3 Zrotation Yrotation Xrotation
					JOINT LeftToe
					{
						OFFSET 0.18768 -0.51564 2.24737
						CHANNELS 3 Zrotation Yrotation Xrotation
						End Site
						{
							OFFSET 0.00000 -0.00000 1.15935
						}
					}
				}
			}
		}
	}
	JOINT RHipJoint
	{
		OFFSET 0 0 0
		CHANNELS 3 Zrotation Yrotation Xrotation
		JOINT RightHip
		{
			OFFSET -1.58830 -1.70879 0.84566
			CHANNELS 3 Zrotation Yrotation Xrotation
			JOINT RightKnee
			{
				OFFSET -2.25006 -6.18201 0.00000
				CHANNELS 3 Zrotation Yrotation Xrotation
				JOINT RightAnkle
				{
					OFFSET -2.72829 -7.49593 0.00000
					CHANNELS 3 Zrotation Yrotation Xrotation
					JOINT RightToe
					{
						OFFSET -0.21541 -0.59185 2.10643
						CHANNELS 3 Zrotation Yrotation Xrotation
						End Site
						{
							OFFSET -0.00000 -0.00000 1.09838
						}
					}
				}
			}
		}
	}
	JOINT lowerback
	{
		OFFSET 0 0 0
		CHANNELS 3 Zrotation Yrotation Xrotation
		JOINT Chest
		{
			OFFSET 0.03142 2.10496 -0.11038
			CHANNELS 3 Zrotation Yrotation Xrotation
			JOINT Chest2
			{
				OFFSET -0.01863 2.10897 -0.06956
				CHANNELS 3 Zrotation Yrotation Xrotation
				JOINT lowerneck
				{
					OFFSET 0 0 0
					CHANNELS 3 Zrotation Yrotation Xrotation
					JOINT Neck
					{
						OFFSET -0.02267 1.73238 0.00451
						CHANNELS 3 Zrotation Yrotation Xrotation
						JOINT Head
						{
							OFFSET -0.05808 1.54724 -0.61749
							CHANNELS 3 Zrotation Yrotation Xrotation
							End Site
							{
								OFFSET -0.01396 1.71468 -0.21082
							}
						}
					}
				}
				JOINT LeftCollar
				{
					OFFSET 0 0 0
					CHANNELS 3 Zrotation Yrotation Xrotation
					JOINT LeftShoulder
					{
						OFFSET 3.44898 0.50298 0.21920
CHANNELS 3 Zrotation Xrotation Yrotation
						JOINT LeftElbow
						{
OFFSET 0 -5.419170 -0.000000
CHANNELS 3 Zrotation Xrotation Yrotation
							JOINT LeftWrist
							{
OFFSET 0 -2.443730 0.000000
CHANNELS 3 Zrotation Xrotation Yrotation
								JOINT lhand
								{
									OFFSET 0 0 0
CHANNELS 3 Zrotation Xrotation Yrotation
									JOINT LFingers
									{
OFFSET 0 -0.727500 0.000000
CHANNELS 3 Zrotation Xrotation Yrotation
										End Site
										{
OFFSET 0 -0.586530 0.000000
										}
									}
								}
								JOINT LThumb
								{
OFFSET 0 0.000000 0.000000
CHANNELS 3 Zrotation Xrotation Yrotation
									End Site
									{
OFFSET 0 -0.595490 0.595490
									}
								}
							}
						}
					}
				}
				JOINT RightCollar
				{
					OFFSET 0 0 0
					CHANNELS 3 Zrotation Yrotation Xrotation
					JOINT RightShoulder
					{
						OFFSET -3.23015 0.55830 0.31051
CHANNELS 3 Zrotation Xrotation Yrotation
						JOINT RightElbow
						{
OFFSET 0 -5.589760 0.000140
CHANNELS 3 Zrotation Xrotation Yrotation
							JOINT RightWrist
							{
OFFSET 0 -2.480600 0.000000
CHANNELS 3 Zrotation Xrotation Yrotation
								JOINT rhand
								{
									OFFSET 0 0 0
CHANNELS 3 Zrotation Xrotation Yrotation
									JOINT RFingers
									{
OFFSET 0 -0.816010 0.000000
CHANNELS 3 Zrotation Xrotation Yrotation
										End Site
										{
OFFSET 0 -0.657890 0.000000
										}
									}
								}
								JOINT RThumb
								{
OFFSET 0 0.000000 0.000000
CHANNELS 3 Zrotation Xrotation Yrotation
									End Site
									{
OFFSET 0 -0.667930 0.667930
									}
								}
							}
						}
					}
				}
			}
		}
	}
}
MOTION
Frames: 9
Frame Time: 0.008333333333333333
0.279471 17.624662 0.248426 -153.655053 29.009366 203.546581 0.000000 0.000000 0.000000 -2.281144 -13.417026 -11.839651 3.377270 11.272748 33.216332 177.987966 -30.631257 -8.924434 2.470852 -9.781243 -28.274168 0.000000 0.000000 0.000000 -45.548046 31.339687 -43.905753 -3.336137 -11.220048 33.025960 178.243894 44.181512 -37.789716 -9.975896 -17.396233 59.407640 11.561778 -1.999884 -0.633738 8.439307 -0.361599 -8.182396 2.560073 -0.073381 -8.604780 -14.921826 -22.235841 -3.248995 5.804153 -30.571505 29.698804 -0.129898 -14.119442 13.877095 0.000000 0.000000 0.000000 85.895640 -25.122731 -13.912992 63.739313 -57.197111 37.475033 44.265385 30.563653 -6.269179 0.000000 0.000000 0.000000 -7.125000 0.000000 0.000000 15.049263 38.281000 2.564146 0.000000 0.000000 0.000000 -71.913639 3.732098 -12.737795 -12.760659 -20.928893 -2.371618 -6.940871 15.349194 -12.728838 0.000000 0.000000 0.000000 7.125000 0.000000 0.000000 14.060745 17.363834 9.454690
0.331348 17.980361 0.122067 -154.975299 32.428629 203.424940 0.000000 0.000000 0.000000 -4.915761 -12.300732 -9.101803 2.638350 10.078659 29.237771 177.507159 -30.663551 -4.822405 1.506956 -7.684338 -21.792004 0.000000 0.000000 0.000000 -46.242446 30.272991 -41.612375 -3.227926 -11.055083 32.465937 177.997577 43.394906 -38.152080 -9.986451 -17.402234 59.443140 12.151741 -2.055847 -2.784846 8.180676 -0.777897 -8.456602 1.936632 -0.302885 -7.697131 -15.565298 -21.833838 -3.539830 4.520793 -29.577564 31.282392 -0.403714 -13.784676 14.379184 0.000000 0.000000 0.000000 90.382828 -22.748040 -15.996148 56.475724 -55.250447 31.436585 44.602575 33.012532 -6.975808 0.000000 0.000000 0.000000 -7.125000 0.000000 0.000000 15.489688 39.266332 2.246967 0.000000 0.000000 0.000000 -75.190852 5.243125 -18.040535 -10.427837 -17.402062 -1.603819 -2.488102 23.445540 -6.039939 0.000000 0.000000 0.000000 7.125000 0.000000 0.000000 17.756834 23.934254 9.472430
0.416127 18.371242 0.011888 -156.693594 35.480217 203.495496 0.000000 0.000000 0.000000 -7.025175 -12.117504 -7.488375 2.085256 9.035064 25.909749 177.200213 -30.974689 -2.367200 0.331289 -3.237932 -8.989939 0.000000 0.000000 0.000000 -47.759725 30.111765 -39.132576 -3.133962 -10.908682 31.972634 175.552572 40.352410 -44.820636 -10.115702 -17.474338 59.874358 12.795606 -1.732084 -5.396141 7.382388 -0.814640 -8.891802 0.684709 -0.373889 -6.713113 -15.793088 -21.818523 -4.004888 3.479635 -29.261656 32.906148 -0.814808 -13.663587 15.011165 0.000000 0.000000 0.000000 94.935011 -21.377095 -19.152894 47.664963 -51.952460 24.336914 45.822842 36.962307 -8.520791 0.000000 0.000000 0.000000 -7.125000 0.000000 0.000000 16.922544 41.496511 1.499281 0.000000 0.000000 0.000000 -77.619850 8.019948 -27.020655 -8.903761 -15.004900 -1.176982 2.048717 34.206801 -5.600105 0.000000 0.000000 0.000000 7.125000 0.000000 0.000000 21.024770 24.320200 11.247792
0.534583 18.780619 -0.072912 -158.771312 38.428608 203.295264 0.000000 0.000000 0.000000 -8.558811 -11.686034 -6.494526 1.733490 8.286338 23.587688 119.158181 -29.694861 -12.810852 2.530508 9.668010 28.116582 0.000000 0.000000 0.000000 -49.561062 30.461017 -36.578129 -3.059470 -10.790758 31.577345 172.457615 34.917029 -53.229460 -10.312890 -17.581971 60.528838 13.216642 -1.340406 -8.383387 6.460677 -0.774060 -9.517117 -0.568231 -0.379566 -5.745398 -17.456744 -21.585462 -2.595508 3.591423 -28.919044 33.759951 -0.457057 -13.653376 15.450875 0.000000 0.000000 0.000000 98.320427 -20.837688 -22.841217 39.929672 -47.994458 18.397593 47.487622 43.165237 -11.236895 0.000000 0.000000 0.000000 -7.125000 0.000000 0.000000 19.217438 45.461863 -0.261639 0.000000 0.000000 0.000000 -80.146220 11.459011 -33.547812 -8.135470 -13.771747 -0.984544 5.718269 43.675812 -4.455416 0.000000 0.000000 0.000000 7.125000 0.000000 0.000000 23.784990 25.303609 12.379940
0.674804 19.182922 -0.084610 -161.369963 41.333405 202.615190 0.000000 0.000000 0.000000 -9.605041 -8.530954 -6.441223 1.580515 7.930958 22.504825 -179.565503 -24.162693 -19.929544 5.898096 14.302979 44.521855 0.000000 0.000000 0.000000 -51.656155 30.654042 -34.501928 -3.057281 -10.787176 31.565471 170.027417 28.645896 -60.044401 -10.497181 -17.680079 61.137495 12.960726 -1.922672 -11.464501 5.599547 -2.228036 -9.347965 -1.487556 -1.075134 -4.002171 -16.467128 -20.734690 -4.050533 2.882188 -27.479097 34.736623 -0.679699 -12.945613 15.710041 0.000000 0.000000 0.000000 101.599579 -17.263740 -25.201483 33.831036 -43.920194 14.008894 41.814542 43.437032 -10.552228 0.000000 0.000000 0.000000 -7.125000 0.000000 0.000000 13.553014 43.594215 0.477125 0.000000 0.000000 0.000000 -81.775371 10.971383 -42.640716 -7.597615 -12.898479 -0.860157 8.823033 55.393455 -2.877390 0.000000 0.000000 0.000000 7.125000 0.000000 0.000000 26.254234 26.629658 13.026838
0.832510 19.562127 -0.116230 -162.329397 43.320330 202.512098 0.000000 0.000000 0.000000 -8.468789 -1.090598 -7.524729 1.612756 8.006812 22.735439 177.853492 -29.785190 -5.603694 4.611788 12.895534 39.037799 0.000000 0.000000 0.000000 -51.828816 32.245596 -31.628525 -3.174435 -10.971903 32.185649 167.872956 21.467693 -66.430250 -10.509912 -17.686765 61.179345 14.289555 -1.993027 -14.346862 5.069084 -2.923880 -9.401663 -2.912420 -1.421650 -2.743150 -17.277484 -20.295389 -3.370942 2.736185 -26.765514 35.062301 -0.443100 -12.772722 15.772741 0.000000 0.000000 0.000000 103.351331 -15.158413 -27.556034 29.516901 -40.465558 11.098454 36.763912 45.113131 -11.793000 0.000000 0.000000 0.000000 -7.125000 0.000000 0.000000 8.879684 44.399178 0.144345 0.000000 0.000000 0.000000 -83.990080 13.022482 -42.765324 -7.556571 -12.831485 -0.850937 10.993178 58.745867 -0.407904 0.000000 0.000000 0.000000 7.125000 0.000000 0.000000 28.347286 28.746722 12.703815
0.977673 19.899709 -0.015759 -162.816028 45.397236 201.637015 0.000000 0.000000 0.000000 -6.445593 4.869015 -7.739333 1.962091 8.777600 25.108109 177.589539 -28.050822 19.337207 2.634153 10.053848 29.172946 0.000000 0.000000 0.000000 -51.453348 34.688537 -29.368906 -3.395606 -11.308485 33.328725 166.299254 14.874492 -71.346551 -10.510150 -17.686871 61.180201 14.973864 -2.826954 -15.011973 5.333491 -4.251190 -9.265050 -3.154329 -2.087040 -2.502891 -18.955836 -19.698081 -2.932609 2.617187 -25.680188 34.775434 -0.050477 -12.586194 15.706985 0.000000 0.000000 0.000000 103.824131 -11.087490 -30.099411 26.134231 -37.324286 8.975587 29.972089 45.018674 -13.836412 0.000000 0.000000 0.000000 -7.125000 0.000000 0.000000 2.397066 45.834068 -0.033984 0.000000 0.000000 0.000000 -86.669829 12.789192 -46.209521 -7.590006 -12.886044 -0.858406 12.285905 65.991219 -0.024966 0.000000 0.000000 0.000000 7.125000 0.000000 0.000000 29.333793 29.007479 13.056248
1.135284 20.175449 0.094130 -164.330290 47.685572 199.324885 0.000000 0.000000 0.000000 -4.766957 9.719357 -7.297513 2.712537 10.207043 29.656851 154.828278 -25.155226 32.110812 1.580942 7.932243 22.508508 0.000000 0.000000 0.000000 -51.340899 37.928913 -26.246548 -3.624132 -11.642487 34.478998 164.851148 7.453541 -75.999301 -10.527082 -17.695796 61.236033 15.150505 -2.851138 -15.437287 4.058549 -4.636448 -8.697390 -4.697961 -2.344906 -1.825773 -17.642078 -19.959692 -2.404086 1.749503 -26.110576 34.667948 -0.498647 -12.781395 15.187743 0.000000 0.000000 0.000000 105.899227 -9.650395 -31.023532 22.941425 -34.019264 7.107948 23.176176 43.431967 -17.194607 0.000000 0.000000 0.000000 -7.125000 0.000000 0.000000 -4.633966 48.524699 0.418819 0.000000 0.000000 0.000000 -87.058887 14.940675 -49.503013 -7.627789 -12.947719 -0.866785 12.805726 72.185437 0.088346 0.000000 0.000000 0.000000 7.125000 0.000000 0.000000 29.714919 29.075160 13.227395
1.288516 20.390426 0.182344 -167.064674 49.635173 195.370384 0.000000 0.000000 0.000000 -3.040359 12.778332 -6.031788 4.026558 12.163245 36.357803 16.023090 -26.165718 37.273643 1.380179 7.427127 20.990360 0.000000 0.000000 0.000000 -50.460974 42.843594 -20.564834 -3.767022 -11.843561 35.180966 163.183309 -0.446491 -81.213654 -10.505387 -17.684425 61.164615 14.642408 -2.880398 -15.124410 3.075274 -4.657237 -8.626471 -5.459477 -2.419962 -1.941708 -21.306105 -19.753762 0.784513 2.787254 -26.189686 34.682444 0.509908 -13.188358 15.451934 0.000000 0.000000 0.000000 105.531065 -9.576553 -31.647124 19.937113 -30.551117 5.506714 20.993621 42.026383 -22.352459 0.000000 0.000000 0.000000 -7.125000 0.000000 0.000000 -8.349307 53.549667 1.806780 0.000000 0.000000 0.000000 -88.975541 18.668960 -44.196912 -7.724705 -13.105701 -0.888684 12.647039 69.971271 0.782809 0.000000 0.000000 0.000000 7.125000 0.000000 0.000000 29.805662 29.704158 12.750858
